# xmcd
#
# Track frame offsets: 
#        150
#        3452
#        22078
#        38641
#        51971
#        69358
#        83447
#        98362
#        117875
#        133354
#        148423
#        167127
#        178617
#        192510
#
# Disc length: 2752 seconds
#
# Revision: 4
# Processed by: cddbd v1.5.2PL0 Copyright (c) Steve Scherf et al.
# Submitted via: ExactAudioCopy v0.99pb4
#
DISCID=be0abe0e
DTITLE=Townes Van Zandt - Live at the Old Quarter [disc 1]
DYEAR=1973
DGENRE=Country
TTITLE0=Announcement
TTITLE1=Pancho and Lefty
TTITLE2=Mr. Mudd and Mr. Gold
TTITLE3=Don't You Take It Too Bad
TTITLE4=Two Girls
TTITLE5=Fraternity Blues
TTITLE6=If I Needed You
TTITLE7=Brand New Companion
TTITLE8=White Freight Liner Blues
TTITLE9=To Live Is to Fly
TTITLE10=She Came and She Touched Me
TTITLE11=Talking Thunderbird Blues
TTITLE12=Rex's Blues
TTITLE13=Nine Pound Hammer
EXTD=
EXTT0=
EXTT1=
EXTT2=
EXTT3=
EXTT4=
EXTT5=
EXTT6=
EXTT7=
EXTT8=
EXTT9=
EXTT10=
EXTT11=
EXTT12=
EXTT13=
PLAYORDER=
